<mxfile host="app.diagrams.net" modified="2023-03-24T05:55:24.020Z" agent="5.0 (Windows NT 10.0; Win64; x64) AppleWebKit/537.36 (KHTML, like Gecko) Chrome/111.0.0.0 Safari/537.36" etag="lo1iuTgOWYceJ2vEKIRy" version="20.7.4" type="github" pages="8">
  <diagram name="ver4" id="imDBrGnMGFNfz4Mmu_-v">
    <mxGraphModel dx="1674" dy="834" grid="1" gridSize="10" guides="1" tooltips="1" connect="1" arrows="1" fold="1" page="1" pageScale="1" pageWidth="850" pageHeight="1100" math="0" shadow="0">
      <root>
        <mxCell id="RWxobbVKRT-F5udP4Qzh-0" />
        <mxCell id="RWxobbVKRT-F5udP4Qzh-1" parent="RWxobbVKRT-F5udP4Qzh-0" />
        <mxCell id="RWxobbVKRT-F5udP4Qzh-2" value="" style="group" parent="RWxobbVKRT-F5udP4Qzh-1" vertex="1" connectable="0">
          <mxGeometry x="200" y="650" width="210" height="100" as="geometry" />
        </mxCell>
        <mxCell id="RWxobbVKRT-F5udP4Qzh-3" value="" style="rounded=1;whiteSpace=wrap;html=1;" parent="RWxobbVKRT-F5udP4Qzh-2" vertex="1">
          <mxGeometry width="200" height="100" as="geometry" />
        </mxCell>
        <mxCell id="RWxobbVKRT-F5udP4Qzh-4" value="&lt;h1&gt;Engineering&lt;/h1&gt;&lt;p&gt;インフラストラクチャ、アーキテクチャ、デザインパターン&lt;/p&gt;" style="text;html=1;strokeColor=none;fillColor=none;spacing=5;spacingTop=-20;whiteSpace=wrap;overflow=hidden;rounded=0;" parent="RWxobbVKRT-F5udP4Qzh-2" vertex="1">
          <mxGeometry x="5" y="7.14" width="190" height="82.86" as="geometry" />
        </mxCell>
        <mxCell id="RWxobbVKRT-F5udP4Qzh-8" value="中盤/イベント駆動アーキテクチャ" style="swimlane;whiteSpace=wrap;html=1;" parent="RWxobbVKRT-F5udP4Qzh-1" vertex="1">
          <mxGeometry x="160" y="610" width="520" height="160" as="geometry" />
        </mxCell>
        <mxCell id="RWxobbVKRT-F5udP4Qzh-5" value="" style="group" parent="RWxobbVKRT-F5udP4Qzh-8" vertex="1" connectable="0">
          <mxGeometry x="280" y="38.56999999999999" width="200" height="100" as="geometry" />
        </mxCell>
        <mxCell id="RWxobbVKRT-F5udP4Qzh-6" value="" style="rounded=1;whiteSpace=wrap;html=1;" parent="RWxobbVKRT-F5udP4Qzh-5" vertex="1">
          <mxGeometry width="200" height="100" as="geometry" />
        </mxCell>
        <mxCell id="RWxobbVKRT-F5udP4Qzh-7" value="&lt;h1&gt;PSY-Read&lt;/h1&gt;&lt;p&gt;行動予測と深層心理把握、パーソナリティ理解&lt;/p&gt;" style="text;html=1;strokeColor=none;fillColor=none;spacing=5;spacingTop=-20;whiteSpace=wrap;overflow=hidden;rounded=0;" parent="RWxobbVKRT-F5udP4Qzh-5" vertex="1">
          <mxGeometry x="5" y="7.142857142857143" width="190" height="85.71428571428572" as="geometry" />
        </mxCell>
        <mxCell id="RWxobbVKRT-F5udP4Qzh-15" value="&lt;b&gt;読み取り不可能性&lt;/b&gt;" style="rounded=1;whiteSpace=wrap;html=1;" parent="RWxobbVKRT-F5udP4Qzh-1" vertex="1">
          <mxGeometry x="160" y="910" width="520" height="60" as="geometry" />
        </mxCell>
        <mxCell id="RWxobbVKRT-F5udP4Qzh-16" value="&lt;b&gt;過小評価性&lt;/b&gt;" style="rounded=1;whiteSpace=wrap;html=1;" parent="RWxobbVKRT-F5udP4Qzh-1" vertex="1">
          <mxGeometry x="160" y="980" width="520" height="60" as="geometry" />
        </mxCell>
        <mxCell id="xT7gQaACSE8CI_xEkgXx-1" value="" style="group" parent="RWxobbVKRT-F5udP4Qzh-1" vertex="1" connectable="0">
          <mxGeometry x="200" y="470" width="200" height="100" as="geometry" />
        </mxCell>
        <mxCell id="xT7gQaACSE8CI_xEkgXx-2" value="" style="rounded=1;whiteSpace=wrap;html=1;" parent="xT7gQaACSE8CI_xEkgXx-1" vertex="1">
          <mxGeometry width="200" height="100" as="geometry" />
        </mxCell>
        <mxCell id="xT7gQaACSE8CI_xEkgXx-3" value="&lt;h1&gt;Typing&lt;/h1&gt;&lt;p&gt;タイピング、ショートカットキー、Vim、HHKB&lt;/p&gt;" style="text;html=1;strokeColor=none;fillColor=none;spacing=5;spacingTop=-20;whiteSpace=wrap;overflow=hidden;rounded=0;" parent="xT7gQaACSE8CI_xEkgXx-1" vertex="1">
          <mxGeometry x="5" y="7.142857142857143" width="190" height="85.71428571428572" as="geometry" />
        </mxCell>
        <mxCell id="xT7gQaACSE8CI_xEkgXx-4" value="" style="group" parent="RWxobbVKRT-F5udP4Qzh-1" vertex="1" connectable="0">
          <mxGeometry x="440" y="470" width="200" height="100" as="geometry" />
        </mxCell>
        <mxCell id="xT7gQaACSE8CI_xEkgXx-5" value="" style="rounded=1;whiteSpace=wrap;html=1;" parent="xT7gQaACSE8CI_xEkgXx-4" vertex="1">
          <mxGeometry width="200" height="100" as="geometry" />
        </mxCell>
        <mxCell id="xT7gQaACSE8CI_xEkgXx-6" value="&lt;h1&gt;PSY-Write&lt;/h1&gt;&lt;p&gt;交渉、誘導&lt;/p&gt;" style="text;html=1;strokeColor=none;fillColor=none;spacing=5;spacingTop=-20;whiteSpace=wrap;overflow=hidden;rounded=0;" parent="xT7gQaACSE8CI_xEkgXx-4" vertex="1">
          <mxGeometry x="5" y="7.142857142857143" width="190" height="85.71428571428572" as="geometry" />
        </mxCell>
        <mxCell id="mebeEe5JR-ruzXooyLbb-4" value="" style="group" parent="RWxobbVKRT-F5udP4Qzh-1" vertex="1" connectable="0">
          <mxGeometry x="200" y="790" width="460" height="100" as="geometry" />
        </mxCell>
        <mxCell id="mebeEe5JR-ruzXooyLbb-5" value="" style="rounded=1;whiteSpace=wrap;html=1;" parent="mebeEe5JR-ruzXooyLbb-4" vertex="1">
          <mxGeometry width="438.09523809523813" height="100" as="geometry" />
        </mxCell>
        <mxCell id="mebeEe5JR-ruzXooyLbb-6" value="&lt;h1&gt;Memonic&lt;/h1&gt;&lt;p&gt;インフラストラクチャ、アーキテクチャ、デザインパターン&lt;/p&gt;" style="text;html=1;strokeColor=none;fillColor=none;spacing=5;spacingTop=-20;whiteSpace=wrap;overflow=hidden;rounded=0;" parent="mebeEe5JR-ruzXooyLbb-4" vertex="1">
          <mxGeometry x="10.952380952380953" y="7.14" width="416.1904761904762" height="82.86" as="geometry" />
        </mxCell>
        <mxCell id="aJ3aL-59ZiZUYZuPgpux-0" value="&lt;b&gt;Shogi&lt;br&gt;&lt;/b&gt;&lt;br&gt;ターン制、手筋、詰めろ" style="rounded=1;whiteSpace=wrap;html=1;" parent="RWxobbVKRT-F5udP4Qzh-1" vertex="1">
          <mxGeometry x="680" y="370" width="150" height="60" as="geometry" />
        </mxCell>
      </root>
    </mxGraphModel>
  </diagram>
  <diagram id="kp53YjnDnrVVReKoVNK4" name="ページ7">
    <mxGraphModel dx="1194" dy="623" grid="1" gridSize="10" guides="1" tooltips="1" connect="1" arrows="1" fold="1" page="1" pageScale="1" pageWidth="850" pageHeight="1100" math="0" shadow="0">
      <root>
        <mxCell id="0" />
        <mxCell id="1" parent="0" />
        <mxCell id="0Lp3fLVRh4IkwuIqzBpp-1" value="&lt;h1&gt;&lt;br&gt;&lt;/h1&gt;" style="text;html=1;strokeColor=none;fillColor=none;spacing=5;spacingTop=-20;whiteSpace=wrap;overflow=hidden;rounded=0;" vertex="1" parent="1">
          <mxGeometry x="90" y="30" width="190" height="120" as="geometry" />
        </mxCell>
        <mxCell id="0Lp3fLVRh4IkwuIqzBpp-4" value="" style="group" vertex="1" connectable="0" parent="1">
          <mxGeometry x="320" y="40" width="200" height="120" as="geometry" />
        </mxCell>
        <mxCell id="0Lp3fLVRh4IkwuIqzBpp-3" value="" style="rounded=1;whiteSpace=wrap;html=1;" vertex="1" parent="0Lp3fLVRh4IkwuIqzBpp-4">
          <mxGeometry width="200" height="120" as="geometry" />
        </mxCell>
        <mxCell id="0Lp3fLVRh4IkwuIqzBpp-2" value="&lt;h1&gt;速さとは何か？&lt;/h1&gt;&lt;p&gt;人間が一度にできる操作については限界がある。ターン制のこと。将棋には一度に一つの手しか打てない&lt;/p&gt;" style="text;html=1;strokeColor=none;fillColor=none;spacing=5;spacingTop=-20;whiteSpace=wrap;overflow=hidden;rounded=0;" vertex="1" parent="0Lp3fLVRh4IkwuIqzBpp-4">
          <mxGeometry width="190" height="120" as="geometry" />
        </mxCell>
      </root>
    </mxGraphModel>
  </diagram>
  <diagram id="wFE0QG_FPsp0jaGvCLVb" name="Page-1">
    <mxGraphModel dx="1194" dy="623" grid="1" gridSize="10" guides="1" tooltips="1" connect="1" arrows="1" fold="1" page="1" pageScale="1" pageWidth="850" pageHeight="1100" math="0" shadow="0">
      <root>
        <mxCell id="0" />
        <mxCell id="1" parent="0" />
        <mxCell id="inZSbyZmvKbImGeBFs-A-2" value="読み取り不可能性" style="rounded=1;whiteSpace=wrap;html=1;" parent="1" vertex="1">
          <mxGeometry x="120" y="400" width="600" height="60" as="geometry" />
        </mxCell>
        <mxCell id="inZSbyZmvKbImGeBFs-A-3" value="" style="endArrow=none;html=1;rounded=0;" parent="1" edge="1">
          <mxGeometry width="50" height="50" relative="1" as="geometry">
            <mxPoint x="10" y="380" as="sourcePoint" />
            <mxPoint x="840" y="380" as="targetPoint" />
          </mxGeometry>
        </mxCell>
        <mxCell id="inZSbyZmvKbImGeBFs-A-7" style="edgeStyle=orthogonalEdgeStyle;rounded=0;orthogonalLoop=1;jettySize=auto;html=1;exitX=1;exitY=0.5;exitDx=0;exitDy=0;entryX=0;entryY=0.5;entryDx=0;entryDy=0;" parent="1" source="inZSbyZmvKbImGeBFs-A-4" target="inZSbyZmvKbImGeBFs-A-5" edge="1">
          <mxGeometry relative="1" as="geometry" />
        </mxCell>
        <mxCell id="inZSbyZmvKbImGeBFs-A-4" value="状態確認 / 判別式" style="rounded=1;whiteSpace=wrap;html=1;" parent="1" vertex="1">
          <mxGeometry x="120" y="300" width="120" height="60" as="geometry" />
        </mxCell>
        <mxCell id="inZSbyZmvKbImGeBFs-A-21" style="edgeStyle=orthogonalEdgeStyle;rounded=0;orthogonalLoop=1;jettySize=auto;html=1;exitX=1;exitY=0.5;exitDx=0;exitDy=0;entryX=0;entryY=0.5;entryDx=0;entryDy=0;" parent="1" source="inZSbyZmvKbImGeBFs-A-5" target="inZSbyZmvKbImGeBFs-A-19" edge="1">
          <mxGeometry relative="1" as="geometry" />
        </mxCell>
        <mxCell id="inZSbyZmvKbImGeBFs-A-5" value="アーキテクチャ" style="rounded=1;whiteSpace=wrap;html=1;" parent="1" vertex="1">
          <mxGeometry x="320" y="300" width="120" height="60" as="geometry" />
        </mxCell>
        <mxCell id="inZSbyZmvKbImGeBFs-A-6" value="基盤" style="text;html=1;strokeColor=none;fillColor=none;align=center;verticalAlign=middle;whiteSpace=wrap;rounded=0;" parent="1" vertex="1">
          <mxGeometry x="780" y="380" width="60" height="30" as="geometry" />
        </mxCell>
        <mxCell id="inZSbyZmvKbImGeBFs-A-8" value="基盤。他のシステムに存在しない特性。" style="shape=callout;whiteSpace=wrap;html=1;perimeter=calloutPerimeter;" parent="1" vertex="1">
          <mxGeometry x="654" y="320" width="120" height="80" as="geometry" />
        </mxCell>
        <mxCell id="inZSbyZmvKbImGeBFs-A-9" value="Input" style="shape=callout;whiteSpace=wrap;html=1;perimeter=calloutPerimeter;" parent="1" vertex="1">
          <mxGeometry x="160" y="220" width="120" height="80" as="geometry" />
        </mxCell>
        <mxCell id="inZSbyZmvKbImGeBFs-A-10" value="ビジネスロジック" style="shape=callout;whiteSpace=wrap;html=1;perimeter=calloutPerimeter;" parent="1" vertex="1">
          <mxGeometry x="340" y="220" width="120" height="80" as="geometry" />
        </mxCell>
        <mxCell id="inZSbyZmvKbImGeBFs-A-19" value="駆け引き/交渉" style="rounded=1;whiteSpace=wrap;html=1;" parent="1" vertex="1">
          <mxGeometry x="520" y="300" width="120" height="60" as="geometry" />
        </mxCell>
        <mxCell id="inZSbyZmvKbImGeBFs-A-20" value="" style="group" parent="1" vertex="1" connectable="0">
          <mxGeometry x="600" y="680" width="240" height="160" as="geometry" />
        </mxCell>
        <mxCell id="inZSbyZmvKbImGeBFs-A-14" value="" style="rounded=0;whiteSpace=wrap;html=1;" parent="inZSbyZmvKbImGeBFs-A-20" vertex="1">
          <mxGeometry width="240" height="160" as="geometry" />
        </mxCell>
        <mxCell id="inZSbyZmvKbImGeBFs-A-11" value="有限個の要素" style="rounded=1;whiteSpace=wrap;html=1;" parent="inZSbyZmvKbImGeBFs-A-20" vertex="1">
          <mxGeometry x="10" y="10" width="110" height="30" as="geometry" />
        </mxCell>
        <mxCell id="inZSbyZmvKbImGeBFs-A-15" value="" style="ellipse;whiteSpace=wrap;html=1;aspect=fixed;" parent="inZSbyZmvKbImGeBFs-A-20" vertex="1">
          <mxGeometry x="10" y="70" width="40" height="40" as="geometry" />
        </mxCell>
        <mxCell id="inZSbyZmvKbImGeBFs-A-16" value="" style="rounded=0;whiteSpace=wrap;html=1;" parent="inZSbyZmvKbImGeBFs-A-20" vertex="1">
          <mxGeometry x="60" y="70" width="40" height="40" as="geometry" />
        </mxCell>
        <mxCell id="inZSbyZmvKbImGeBFs-A-17" value="" style="triangle;whiteSpace=wrap;html=1;rotation=-90;" parent="inZSbyZmvKbImGeBFs-A-20" vertex="1">
          <mxGeometry x="110" y="70" width="40" height="40" as="geometry" />
        </mxCell>
        <mxCell id="inZSbyZmvKbImGeBFs-A-23" value="学習性" style="rounded=1;whiteSpace=wrap;html=1;" parent="1" vertex="1">
          <mxGeometry x="130" y="120" width="120" height="60" as="geometry" />
        </mxCell>
        <mxCell id="inZSbyZmvKbImGeBFs-A-24" value="" style="endArrow=none;html=1;rounded=0;" parent="1" edge="1">
          <mxGeometry width="50" height="50" relative="1" as="geometry">
            <mxPoint x="5" y="520" as="sourcePoint" />
            <mxPoint x="835" y="520" as="targetPoint" />
          </mxGeometry>
        </mxCell>
        <mxCell id="inZSbyZmvKbImGeBFs-A-25" value="candidate" style="text;html=1;strokeColor=none;fillColor=none;align=center;verticalAlign=middle;whiteSpace=wrap;rounded=0;" parent="1" vertex="1">
          <mxGeometry x="780" y="520" width="60" height="30" as="geometry" />
        </mxCell>
        <mxCell id="inZSbyZmvKbImGeBFs-A-26" value="誠実性" style="rounded=1;whiteSpace=wrap;html=1;" parent="1" vertex="1">
          <mxGeometry x="280" y="540" width="120" height="60" as="geometry" />
        </mxCell>
        <mxCell id="inZSbyZmvKbImGeBFs-A-28" value="" style="endArrow=none;html=1;rounded=0;" parent="1" edge="1">
          <mxGeometry width="50" height="50" relative="1" as="geometry">
            <mxPoint x="5" y="640" as="sourcePoint" />
            <mxPoint x="835" y="640" as="targetPoint" />
          </mxGeometry>
        </mxCell>
        <mxCell id="inZSbyZmvKbImGeBFs-A-29" value="目標" style="text;html=1;strokeColor=none;fillColor=none;align=center;verticalAlign=middle;whiteSpace=wrap;rounded=0;" parent="1" vertex="1">
          <mxGeometry x="780" y="640" width="60" height="30" as="geometry" />
        </mxCell>
        <mxCell id="inZSbyZmvKbImGeBFs-A-37" value="状態確認 / 判別式" style="rounded=1;whiteSpace=wrap;html=1;" parent="1" vertex="1">
          <mxGeometry x="280" y="760" width="120" height="60" as="geometry" />
        </mxCell>
        <mxCell id="inZSbyZmvKbImGeBFs-A-38" value="アーキテクチャ" style="rounded=1;whiteSpace=wrap;html=1;" parent="1" vertex="1">
          <mxGeometry x="280" y="680" width="120" height="60" as="geometry" />
        </mxCell>
        <mxCell id="inZSbyZmvKbImGeBFs-A-41" style="edgeStyle=orthogonalEdgeStyle;rounded=0;orthogonalLoop=1;jettySize=auto;html=1;exitX=0.5;exitY=1;exitDx=0;exitDy=0;entryX=0.5;entryY=0;entryDx=0;entryDy=0;" parent="1" source="inZSbyZmvKbImGeBFs-A-39" target="inZSbyZmvKbImGeBFs-A-40" edge="1">
          <mxGeometry relative="1" as="geometry" />
        </mxCell>
        <mxCell id="inZSbyZmvKbImGeBFs-A-39" value="駆け引き/交渉" style="rounded=1;whiteSpace=wrap;html=1;" parent="1" vertex="1">
          <mxGeometry x="440" y="680" width="120" height="60" as="geometry" />
        </mxCell>
        <mxCell id="inZSbyZmvKbImGeBFs-A-40" value="読み取り不可能性" style="rounded=1;whiteSpace=wrap;html=1;" parent="1" vertex="1">
          <mxGeometry x="440" y="760" width="120" height="60" as="geometry" />
        </mxCell>
        <mxCell id="yquI6ktLGYZuGbfQ7vaa-8" value="人材業界" style="rounded=0;whiteSpace=wrap;html=1;" parent="1" vertex="1">
          <mxGeometry x="120" y="1000" width="120" height="60" as="geometry" />
        </mxCell>
        <mxCell id="yquI6ktLGYZuGbfQ7vaa-9" value="ブログ" style="rounded=0;whiteSpace=wrap;html=1;" parent="1" vertex="1">
          <mxGeometry x="120" y="920" width="120" height="60" as="geometry" />
        </mxCell>
        <mxCell id="yquI6ktLGYZuGbfQ7vaa-10" value="エンジニアリング" style="rounded=0;whiteSpace=wrap;html=1;" parent="1" vertex="1">
          <mxGeometry x="120" y="840" width="120" height="60" as="geometry" />
        </mxCell>
        <mxCell id="U6o10QhPIGu6pNzklqBr-1" value="psy" style="rounded=0;whiteSpace=wrap;html=1;" parent="1" vertex="1">
          <mxGeometry x="120" y="760" width="120" height="60" as="geometry" />
        </mxCell>
        <mxCell id="U6o10QhPIGu6pNzklqBr-2" value="" style="group" parent="1" vertex="1" connectable="0">
          <mxGeometry x="600" y="860" width="240" height="160" as="geometry" />
        </mxCell>
        <mxCell id="U6o10QhPIGu6pNzklqBr-3" value="" style="rounded=0;whiteSpace=wrap;html=1;" parent="U6o10QhPIGu6pNzklqBr-2" vertex="1">
          <mxGeometry width="240" height="160" as="geometry" />
        </mxCell>
        <mxCell id="U6o10QhPIGu6pNzklqBr-4" value="144通り" style="rounded=1;whiteSpace=wrap;html=1;" parent="U6o10QhPIGu6pNzklqBr-2" vertex="1">
          <mxGeometry x="10" y="10" width="110" height="30" as="geometry" />
        </mxCell>
        <mxCell id="U6o10QhPIGu6pNzklqBr-5" value="" style="ellipse;whiteSpace=wrap;html=1;aspect=fixed;" parent="U6o10QhPIGu6pNzklqBr-2" vertex="1">
          <mxGeometry x="10" y="70" width="40" height="40" as="geometry" />
        </mxCell>
        <mxCell id="U6o10QhPIGu6pNzklqBr-12" value="" style="rounded=0;whiteSpace=wrap;html=1;" parent="U6o10QhPIGu6pNzklqBr-2" vertex="1">
          <mxGeometry x="70" y="70" width="40" height="40" as="geometry" />
        </mxCell>
        <mxCell id="U6o10QhPIGu6pNzklqBr-17" value="" style="triangle;whiteSpace=wrap;html=1;rotation=-90;" parent="U6o10QhPIGu6pNzklqBr-2" vertex="1">
          <mxGeometry x="130" y="70" width="40" height="40" as="geometry" />
        </mxCell>
        <mxCell id="U6o10QhPIGu6pNzklqBr-8" value="" style="ellipse;whiteSpace=wrap;html=1;aspect=fixed;" parent="1" vertex="1">
          <mxGeometry x="620" y="940" width="40" height="40" as="geometry" />
        </mxCell>
        <mxCell id="U6o10QhPIGu6pNzklqBr-9" value="" style="ellipse;whiteSpace=wrap;html=1;aspect=fixed;" parent="1" vertex="1">
          <mxGeometry x="630" y="950" width="40" height="40" as="geometry" />
        </mxCell>
        <mxCell id="U6o10QhPIGu6pNzklqBr-10" value="" style="ellipse;whiteSpace=wrap;html=1;aspect=fixed;" parent="1" vertex="1">
          <mxGeometry x="640" y="960" width="40" height="40" as="geometry" />
        </mxCell>
        <mxCell id="U6o10QhPIGu6pNzklqBr-13" value="" style="rounded=0;whiteSpace=wrap;html=1;" parent="1" vertex="1">
          <mxGeometry x="680" y="940" width="40" height="40" as="geometry" />
        </mxCell>
        <mxCell id="U6o10QhPIGu6pNzklqBr-14" value="" style="rounded=0;whiteSpace=wrap;html=1;" parent="1" vertex="1">
          <mxGeometry x="690" y="950" width="40" height="40" as="geometry" />
        </mxCell>
        <mxCell id="U6o10QhPIGu6pNzklqBr-15" value="" style="rounded=0;whiteSpace=wrap;html=1;" parent="1" vertex="1">
          <mxGeometry x="700" y="960" width="40" height="40" as="geometry" />
        </mxCell>
        <mxCell id="U6o10QhPIGu6pNzklqBr-18" value="" style="triangle;whiteSpace=wrap;html=1;rotation=-90;" parent="1" vertex="1">
          <mxGeometry x="740" y="940" width="40" height="40" as="geometry" />
        </mxCell>
        <mxCell id="U6o10QhPIGu6pNzklqBr-19" value="" style="triangle;whiteSpace=wrap;html=1;rotation=-90;" parent="1" vertex="1">
          <mxGeometry x="750" y="950" width="40" height="40" as="geometry" />
        </mxCell>
        <mxCell id="U6o10QhPIGu6pNzklqBr-20" value="" style="triangle;whiteSpace=wrap;html=1;rotation=-90;" parent="1" vertex="1">
          <mxGeometry x="760" y="960" width="40" height="40" as="geometry" />
        </mxCell>
        <mxCell id="U6o10QhPIGu6pNzklqBr-22" value="予習" style="rounded=1;whiteSpace=wrap;html=1;" parent="1" vertex="1">
          <mxGeometry x="120" y="680" width="120" height="60" as="geometry" />
        </mxCell>
        <mxCell id="U6o10QhPIGu6pNzklqBr-23" value="備え" style="rounded=1;whiteSpace=wrap;html=1;" parent="1" vertex="1">
          <mxGeometry x="280" y="840" width="120" height="60" as="geometry" />
        </mxCell>
        <mxCell id="Nrn3Vzutgz3Ykv-2pz5x-6" value="" style="group" parent="1" vertex="1" connectable="0">
          <mxGeometry x="360" y="1100" width="200" height="200" as="geometry" />
        </mxCell>
        <mxCell id="yquI6ktLGYZuGbfQ7vaa-7" value="人材業界" style="swimlane;whiteSpace=wrap;html=1;" parent="Nrn3Vzutgz3Ykv-2pz5x-6" vertex="1">
          <mxGeometry width="200" height="200" as="geometry" />
        </mxCell>
        <mxCell id="Nrn3Vzutgz3Ykv-2pz5x-1" value="職業知識" style="rounded=0;whiteSpace=wrap;html=1;" parent="yquI6ktLGYZuGbfQ7vaa-7" vertex="1">
          <mxGeometry x="15" y="40" width="120" height="60" as="geometry" />
        </mxCell>
        <mxCell id="Nrn3Vzutgz3Ykv-2pz5x-2" value="職業知識" style="rounded=0;whiteSpace=wrap;html=1;" parent="Nrn3Vzutgz3Ykv-2pz5x-6" vertex="1">
          <mxGeometry x="25" y="50" width="120" height="60" as="geometry" />
        </mxCell>
        <mxCell id="Nrn3Vzutgz3Ykv-2pz5x-3" value="職業知識" style="rounded=0;whiteSpace=wrap;html=1;" parent="Nrn3Vzutgz3Ykv-2pz5x-6" vertex="1">
          <mxGeometry x="35" y="60" width="120" height="60" as="geometry" />
        </mxCell>
        <mxCell id="LVHz5VqLMdy4M4Zj_pwN-1" value="" style="group" parent="1" vertex="1" connectable="0">
          <mxGeometry x="80" y="1100" width="200" height="200" as="geometry" />
        </mxCell>
        <mxCell id="LVHz5VqLMdy4M4Zj_pwN-2" value="PSY" style="swimlane;whiteSpace=wrap;html=1;" parent="LVHz5VqLMdy4M4Zj_pwN-1" vertex="1">
          <mxGeometry width="200" height="200" as="geometry" />
        </mxCell>
        <mxCell id="LVHz5VqLMdy4M4Zj_pwN-3" value="職業知識" style="rounded=0;whiteSpace=wrap;html=1;" parent="LVHz5VqLMdy4M4Zj_pwN-2" vertex="1">
          <mxGeometry x="15" y="40" width="120" height="60" as="geometry" />
        </mxCell>
        <mxCell id="LVHz5VqLMdy4M4Zj_pwN-4" value="職業知識" style="rounded=0;whiteSpace=wrap;html=1;" parent="LVHz5VqLMdy4M4Zj_pwN-1" vertex="1">
          <mxGeometry x="25" y="50" width="120" height="60" as="geometry" />
        </mxCell>
        <mxCell id="LVHz5VqLMdy4M4Zj_pwN-5" value="ボディーランゲージ" style="rounded=0;whiteSpace=wrap;html=1;" parent="LVHz5VqLMdy4M4Zj_pwN-1" vertex="1">
          <mxGeometry x="35" y="60" width="120" height="60" as="geometry" />
        </mxCell>
        <mxCell id="LVHz5VqLMdy4M4Zj_pwN-7" value="ブランド" style="rounded=1;whiteSpace=wrap;html=1;" parent="1" vertex="1">
          <mxGeometry x="280" y="920" width="120" height="60" as="geometry" />
        </mxCell>
        <mxCell id="Rl2eVhITQ8gvpNXT_VMM-2" value="あらかじめ作る" style="rounded=1;whiteSpace=wrap;html=1;" parent="1" vertex="1">
          <mxGeometry x="360" y="1480" width="120" height="60" as="geometry" />
        </mxCell>
        <mxCell id="Rl2eVhITQ8gvpNXT_VMM-3" value="組み立ておく" style="rounded=1;whiteSpace=wrap;html=1;" parent="1" vertex="1">
          <mxGeometry x="520" y="1480" width="120" height="60" as="geometry" />
        </mxCell>
      </root>
    </mxGraphModel>
  </diagram>
  <diagram id="nyPZuWi61jV4sUHr3D2n" name="ページ2">
    <mxGraphModel dx="1194" dy="623" grid="1" gridSize="10" guides="1" tooltips="1" connect="1" arrows="1" fold="1" page="1" pageScale="1" pageWidth="850" pageHeight="1100" math="0" shadow="0">
      <root>
        <mxCell id="0" />
        <mxCell id="1" parent="0" />
        <mxCell id="a4J_tD9FHK3xgemTOsCV-1" value="読み取り不可能性" style="rounded=1;whiteSpace=wrap;html=1;" parent="1" vertex="1">
          <mxGeometry x="80" y="400" width="640" height="60" as="geometry" />
        </mxCell>
        <mxCell id="6W3VLkoeGb5MHxH7wNwg-1" value="駆け引き/交渉" style="rounded=1;whiteSpace=wrap;html=1;" parent="1" vertex="1">
          <mxGeometry x="600" y="240" width="120" height="60" as="geometry" />
        </mxCell>
        <mxCell id="yg4iy13ds_MlBpIP62IC-1" style="edgeStyle=orthogonalEdgeStyle;rounded=0;orthogonalLoop=1;jettySize=auto;html=1;exitX=0.5;exitY=1;exitDx=0;exitDy=0;entryX=0.5;entryY=0;entryDx=0;entryDy=0;" parent="1" source="KHF9WGX4yWXxlUHKysj0-1" target="6W3VLkoeGb5MHxH7wNwg-1" edge="1">
          <mxGeometry relative="1" as="geometry" />
        </mxCell>
        <mxCell id="KHF9WGX4yWXxlUHKysj0-1" value="反復" style="rounded=1;whiteSpace=wrap;html=1;" parent="1" vertex="1">
          <mxGeometry x="600" y="120" width="120" height="60" as="geometry" />
        </mxCell>
        <mxCell id="GC0HZ_gJFwvxQzJS8nS6-1" value="" style="endArrow=none;html=1;rounded=0;" parent="1" edge="1">
          <mxGeometry width="50" height="50" relative="1" as="geometry">
            <mxPoint x="5" y="520" as="sourcePoint" />
            <mxPoint x="835" y="520" as="targetPoint" />
          </mxGeometry>
        </mxCell>
        <mxCell id="Zt2zxE1kUa96gM3WS9es-1" value="" style="group" parent="1" vertex="1" connectable="0">
          <mxGeometry x="500" y="560" width="330" height="350" as="geometry" />
        </mxCell>
        <mxCell id="Zt2zxE1kUa96gM3WS9es-2" value="" style="rounded=0;whiteSpace=wrap;html=1;" parent="Zt2zxE1kUa96gM3WS9es-1" vertex="1">
          <mxGeometry width="240" height="160" as="geometry" />
        </mxCell>
        <mxCell id="Zt2zxE1kUa96gM3WS9es-3" value="144通り" style="rounded=1;whiteSpace=wrap;html=1;" parent="Zt2zxE1kUa96gM3WS9es-1" vertex="1">
          <mxGeometry x="10" y="10" width="110" height="30" as="geometry" />
        </mxCell>
        <mxCell id="Zt2zxE1kUa96gM3WS9es-4" value="" style="ellipse;whiteSpace=wrap;html=1;aspect=fixed;" parent="Zt2zxE1kUa96gM3WS9es-1" vertex="1">
          <mxGeometry x="10" y="70" width="40" height="40" as="geometry" />
        </mxCell>
        <mxCell id="Zt2zxE1kUa96gM3WS9es-5" value="" style="rounded=0;whiteSpace=wrap;html=1;" parent="Zt2zxE1kUa96gM3WS9es-1" vertex="1">
          <mxGeometry x="70" y="70" width="40" height="40" as="geometry" />
        </mxCell>
        <mxCell id="Zt2zxE1kUa96gM3WS9es-6" value="" style="triangle;whiteSpace=wrap;html=1;rotation=-90;" parent="Zt2zxE1kUa96gM3WS9es-1" vertex="1">
          <mxGeometry x="130" y="70" width="40" height="40" as="geometry" />
        </mxCell>
        <mxCell id="H180bYEWFungEM26CTrs-1" value="" style="group" parent="Zt2zxE1kUa96gM3WS9es-1" vertex="1" connectable="0">
          <mxGeometry x="90" y="190" width="240" height="160" as="geometry" />
        </mxCell>
        <mxCell id="H180bYEWFungEM26CTrs-2" value="" style="rounded=0;whiteSpace=wrap;html=1;" parent="H180bYEWFungEM26CTrs-1" vertex="1">
          <mxGeometry width="240" height="160" as="geometry" />
        </mxCell>
        <mxCell id="H180bYEWFungEM26CTrs-3" value="有限個の要素" style="rounded=1;whiteSpace=wrap;html=1;" parent="H180bYEWFungEM26CTrs-1" vertex="1">
          <mxGeometry x="10" y="10" width="110" height="30" as="geometry" />
        </mxCell>
        <mxCell id="H180bYEWFungEM26CTrs-4" value="" style="ellipse;whiteSpace=wrap;html=1;aspect=fixed;" parent="H180bYEWFungEM26CTrs-1" vertex="1">
          <mxGeometry x="10" y="70" width="40" height="40" as="geometry" />
        </mxCell>
        <mxCell id="H180bYEWFungEM26CTrs-5" value="" style="rounded=0;whiteSpace=wrap;html=1;" parent="H180bYEWFungEM26CTrs-1" vertex="1">
          <mxGeometry x="60" y="70" width="40" height="40" as="geometry" />
        </mxCell>
        <mxCell id="H180bYEWFungEM26CTrs-6" value="" style="triangle;whiteSpace=wrap;html=1;rotation=-90;" parent="H180bYEWFungEM26CTrs-1" vertex="1">
          <mxGeometry x="110" y="70" width="40" height="40" as="geometry" />
        </mxCell>
        <mxCell id="_B46zmNz50q9xHwY8EBf-1" value="" style="group" parent="1" vertex="1" connectable="0">
          <mxGeometry x="80" y="65" width="200" height="370" as="geometry" />
        </mxCell>
        <mxCell id="_B46zmNz50q9xHwY8EBf-2" value="PSY" style="swimlane;whiteSpace=wrap;html=1;" parent="_B46zmNz50q9xHwY8EBf-1" vertex="1">
          <mxGeometry width="200" height="150" as="geometry" />
        </mxCell>
        <mxCell id="_B46zmNz50q9xHwY8EBf-3" value="職業知識" style="rounded=0;whiteSpace=wrap;html=1;" parent="_B46zmNz50q9xHwY8EBf-2" vertex="1">
          <mxGeometry x="15" y="40" width="120" height="60" as="geometry" />
        </mxCell>
        <mxCell id="_B46zmNz50q9xHwY8EBf-4" value="職業知識" style="rounded=0;whiteSpace=wrap;html=1;" parent="_B46zmNz50q9xHwY8EBf-1" vertex="1">
          <mxGeometry x="25" y="50" width="120" height="60" as="geometry" />
        </mxCell>
        <mxCell id="_B46zmNz50q9xHwY8EBf-5" value="ボディーランゲージ" style="rounded=0;whiteSpace=wrap;html=1;" parent="_B46zmNz50q9xHwY8EBf-1" vertex="1">
          <mxGeometry x="35" y="60" width="120" height="60" as="geometry" />
        </mxCell>
        <mxCell id="4AGg_c0wZisxlfH79rik-1" value="" style="group" parent="_B46zmNz50q9xHwY8EBf-1" vertex="1" connectable="0">
          <mxGeometry y="170" width="200" height="200" as="geometry" />
        </mxCell>
        <mxCell id="4AGg_c0wZisxlfH79rik-2" value="人材業界" style="swimlane;whiteSpace=wrap;html=1;" parent="4AGg_c0wZisxlfH79rik-1" vertex="1">
          <mxGeometry width="200" height="150" as="geometry" />
        </mxCell>
        <mxCell id="4AGg_c0wZisxlfH79rik-3" value="職業知識" style="rounded=0;whiteSpace=wrap;html=1;" parent="4AGg_c0wZisxlfH79rik-2" vertex="1">
          <mxGeometry x="15" y="40" width="120" height="60" as="geometry" />
        </mxCell>
        <mxCell id="4AGg_c0wZisxlfH79rik-4" value="職業知識" style="rounded=0;whiteSpace=wrap;html=1;" parent="4AGg_c0wZisxlfH79rik-1" vertex="1">
          <mxGeometry x="25" y="50" width="120" height="60" as="geometry" />
        </mxCell>
        <mxCell id="4AGg_c0wZisxlfH79rik-5" value="職業知識" style="rounded=0;whiteSpace=wrap;html=1;" parent="4AGg_c0wZisxlfH79rik-1" vertex="1">
          <mxGeometry x="35" y="60" width="120" height="60" as="geometry" />
        </mxCell>
        <mxCell id="yg4iy13ds_MlBpIP62IC-2" value="メディエーター" style="rounded=1;whiteSpace=wrap;html=1;" parent="1" vertex="1">
          <mxGeometry x="320" y="200" width="120" height="60" as="geometry" />
        </mxCell>
        <mxCell id="yg4iy13ds_MlBpIP62IC-3" style="edgeStyle=orthogonalEdgeStyle;rounded=0;orthogonalLoop=1;jettySize=auto;html=1;exitX=1;exitY=0.5;exitDx=0;exitDy=0;entryX=0;entryY=0.5;entryDx=0;entryDy=0;" parent="1" source="_B46zmNz50q9xHwY8EBf-2" target="yg4iy13ds_MlBpIP62IC-2" edge="1">
          <mxGeometry relative="1" as="geometry" />
        </mxCell>
        <mxCell id="yg4iy13ds_MlBpIP62IC-4" style="edgeStyle=orthogonalEdgeStyle;rounded=0;orthogonalLoop=1;jettySize=auto;html=1;exitX=1;exitY=0.5;exitDx=0;exitDy=0;entryX=0;entryY=0.5;entryDx=0;entryDy=0;" parent="1" source="4AGg_c0wZisxlfH79rik-2" target="yg4iy13ds_MlBpIP62IC-2" edge="1">
          <mxGeometry relative="1" as="geometry" />
        </mxCell>
        <mxCell id="y6o9rw01HhzRwaWWrSIZ-5" value="" style="group" parent="1" vertex="1" connectable="0">
          <mxGeometry x="160" y="910" width="200" height="140" as="geometry" />
        </mxCell>
        <mxCell id="y6o9rw01HhzRwaWWrSIZ-3" value="" style="rounded=1;whiteSpace=wrap;html=1;" parent="y6o9rw01HhzRwaWWrSIZ-5" vertex="1">
          <mxGeometry width="200" height="140" as="geometry" />
        </mxCell>
        <mxCell id="y6o9rw01HhzRwaWWrSIZ-4" value="&lt;h1&gt;メディエーター&lt;/h1&gt;&lt;p&gt;オーケストレーションを担う。&lt;/p&gt;&lt;p&gt;アーキテクチャスタイルを理解しメッセージングにより協調。&lt;/p&gt;" style="text;html=1;strokeColor=none;fillColor=none;spacing=5;spacingTop=-20;whiteSpace=wrap;overflow=hidden;rounded=0;" parent="y6o9rw01HhzRwaWWrSIZ-5" vertex="1">
          <mxGeometry x="5" y="10" width="190" height="120" as="geometry" />
        </mxCell>
        <mxCell id="y6o9rw01HhzRwaWWrSIZ-15" value="" style="group" parent="1" vertex="1" connectable="0">
          <mxGeometry x="280" y="760" width="200" height="140" as="geometry" />
        </mxCell>
        <mxCell id="y6o9rw01HhzRwaWWrSIZ-16" value="" style="rounded=1;whiteSpace=wrap;html=1;" parent="y6o9rw01HhzRwaWWrSIZ-15" vertex="1">
          <mxGeometry width="200" height="140" as="geometry" />
        </mxCell>
        <mxCell id="y6o9rw01HhzRwaWWrSIZ-17" value="&lt;h1&gt;PSY&lt;/h1&gt;&lt;p&gt;&lt;span style=&quot;background-color: initial;&quot;&gt;トランザクション運び。&lt;/span&gt;&lt;br&gt;&lt;/p&gt;&lt;p&gt;他二つにない情報を生み出せる。リスクを負ってもいい。&lt;/p&gt;" style="text;html=1;strokeColor=none;fillColor=none;spacing=5;spacingTop=-20;whiteSpace=wrap;overflow=hidden;rounded=0;" parent="y6o9rw01HhzRwaWWrSIZ-15" vertex="1">
          <mxGeometry x="5" y="10" width="190" height="120" as="geometry" />
        </mxCell>
        <mxCell id="QGN3rfFHwMuUhLYEolWD-2" value="中盤/イベント駆動アーキテクチャ" style="swimlane;whiteSpace=wrap;html=1;" parent="1" vertex="1">
          <mxGeometry x="30" y="720" width="460" height="340" as="geometry" />
        </mxCell>
        <mxCell id="y6o9rw01HhzRwaWWrSIZ-18" value="" style="group" parent="QGN3rfFHwMuUhLYEolWD-2" vertex="1" connectable="0">
          <mxGeometry x="20" y="40" width="200" height="140" as="geometry" />
        </mxCell>
        <mxCell id="y6o9rw01HhzRwaWWrSIZ-19" value="" style="rounded=1;whiteSpace=wrap;html=1;" parent="y6o9rw01HhzRwaWWrSIZ-18" vertex="1">
          <mxGeometry width="200" height="140" as="geometry" />
        </mxCell>
        <mxCell id="y6o9rw01HhzRwaWWrSIZ-20" value="&lt;h1&gt;ジョブ&lt;/h1&gt;&lt;p&gt;トランザクションキープ&lt;/p&gt;&lt;p&gt;安定した情報源として機能する。リスクを負ってはいけない。&lt;/p&gt;" style="text;html=1;strokeColor=none;fillColor=none;spacing=5;spacingTop=-20;whiteSpace=wrap;overflow=hidden;rounded=0;" parent="y6o9rw01HhzRwaWWrSIZ-18" vertex="1">
          <mxGeometry x="5" y="10" width="190" height="120" as="geometry" />
        </mxCell>
        <mxCell id="0jOe-CnsjHycQR-Hcs0P-1" value="" style="group" parent="1" vertex="1" connectable="0">
          <mxGeometry x="590" y="920" width="200" height="140" as="geometry" />
        </mxCell>
        <mxCell id="0jOe-CnsjHycQR-Hcs0P-2" value="" style="rounded=1;whiteSpace=wrap;html=1;" parent="0jOe-CnsjHycQR-Hcs0P-1" vertex="1">
          <mxGeometry width="200" height="140" as="geometry" />
        </mxCell>
        <mxCell id="0jOe-CnsjHycQR-Hcs0P-3" value="&lt;h1&gt;タイピング&lt;/h1&gt;&lt;p&gt;&lt;span style=&quot;background-color: initial;&quot;&gt;実働部隊&lt;/span&gt;&lt;/p&gt;" style="text;html=1;strokeColor=none;fillColor=none;spacing=5;spacingTop=-20;whiteSpace=wrap;overflow=hidden;rounded=0;" parent="0jOe-CnsjHycQR-Hcs0P-1" vertex="1">
          <mxGeometry x="5" y="10" width="190" height="120" as="geometry" />
        </mxCell>
      </root>
    </mxGraphModel>
  </diagram>
  <diagram id="X95ieRdKmyKC1UsvLONj" name="ページ3">
    <mxGraphModel dx="1194" dy="623" grid="1" gridSize="10" guides="1" tooltips="1" connect="1" arrows="1" fold="1" page="1" pageScale="1" pageWidth="850" pageHeight="1100" math="0" shadow="0">
      <root>
        <mxCell id="0" />
        <mxCell id="1" parent="0" />
        <mxCell id="OWafoXtwRn1rCCrCmbJ9-11" value="" style="group" parent="1" vertex="1" connectable="0">
          <mxGeometry x="320" y="470" width="210" height="140" as="geometry" />
        </mxCell>
        <mxCell id="OWafoXtwRn1rCCrCmbJ9-12" value="" style="rounded=1;whiteSpace=wrap;html=1;" parent="OWafoXtwRn1rCCrCmbJ9-11" vertex="1">
          <mxGeometry width="200" height="140" as="geometry" />
        </mxCell>
        <mxCell id="OWafoXtwRn1rCCrCmbJ9-13" value="&lt;h1&gt;メディエーター&lt;/h1&gt;&lt;p&gt;オーケストレーションを担う。&lt;/p&gt;&lt;p&gt;アーキテクチャスタイルを理解しメッセージングにより協調。&amp;nbsp; &amp;nbsp; by Draw.io&lt;/p&gt;" style="text;html=1;strokeColor=none;fillColor=none;spacing=5;spacingTop=-20;whiteSpace=wrap;overflow=hidden;rounded=0;" parent="OWafoXtwRn1rCCrCmbJ9-11" vertex="1">
          <mxGeometry x="5" y="10" width="190" height="120" as="geometry" />
        </mxCell>
        <mxCell id="OWafoXtwRn1rCCrCmbJ9-14" value="" style="group" parent="1" vertex="1" connectable="0">
          <mxGeometry x="440" y="320" width="200" height="140" as="geometry" />
        </mxCell>
        <mxCell id="OWafoXtwRn1rCCrCmbJ9-15" value="" style="rounded=1;whiteSpace=wrap;html=1;" parent="OWafoXtwRn1rCCrCmbJ9-14" vertex="1">
          <mxGeometry width="200" height="140" as="geometry" />
        </mxCell>
        <mxCell id="OWafoXtwRn1rCCrCmbJ9-16" value="&lt;h1&gt;PSY-Read&lt;/h1&gt;&lt;p&gt;&lt;span style=&quot;background-color: initial;&quot;&gt;トランザクション運び。&lt;/span&gt;&lt;br&gt;&lt;/p&gt;&lt;p&gt;予測すること。 by psy.&lt;/p&gt;" style="text;html=1;strokeColor=none;fillColor=none;spacing=5;spacingTop=-20;whiteSpace=wrap;overflow=hidden;rounded=0;" parent="OWafoXtwRn1rCCrCmbJ9-14" vertex="1">
          <mxGeometry x="5" y="10" width="190" height="120" as="geometry" />
        </mxCell>
        <mxCell id="OWafoXtwRn1rCCrCmbJ9-17" value="中盤/イベント駆動アーキテクチャ" style="swimlane;whiteSpace=wrap;html=1;" parent="1" vertex="1">
          <mxGeometry x="190" y="280" width="460" height="340" as="geometry" />
        </mxCell>
        <mxCell id="OWafoXtwRn1rCCrCmbJ9-18" value="" style="group" parent="OWafoXtwRn1rCCrCmbJ9-17" vertex="1" connectable="0">
          <mxGeometry x="20" y="40" width="380" height="300" as="geometry" />
        </mxCell>
        <mxCell id="OWafoXtwRn1rCCrCmbJ9-19" value="" style="rounded=1;whiteSpace=wrap;html=1;" parent="OWafoXtwRn1rCCrCmbJ9-18" vertex="1">
          <mxGeometry x="-9" width="200" height="140" as="geometry" />
        </mxCell>
        <mxCell id="OWafoXtwRn1rCCrCmbJ9-20" value="&lt;h1&gt;ジョブ&lt;/h1&gt;&lt;p&gt;トランザクションキープ&lt;/p&gt;&lt;p&gt;安定した情報源として機能する。リスクを負ってはいけない。&lt;/p&gt;" style="text;html=1;strokeColor=none;fillColor=none;spacing=5;spacingTop=-20;whiteSpace=wrap;overflow=hidden;rounded=0;" parent="OWafoXtwRn1rCCrCmbJ9-18" vertex="1">
          <mxGeometry x="1" y="10" width="190" height="120" as="geometry" />
        </mxCell>
        <mxCell id="TnBXPGeX3V1vDeN0pRzf-1" value="" style="group" parent="1" vertex="1" connectable="0">
          <mxGeometry x="80" y="120" width="200" height="140" as="geometry" />
        </mxCell>
        <mxCell id="TnBXPGeX3V1vDeN0pRzf-2" value="" style="rounded=1;whiteSpace=wrap;html=1;" parent="TnBXPGeX3V1vDeN0pRzf-1" vertex="1">
          <mxGeometry width="200" height="140" as="geometry" />
        </mxCell>
        <mxCell id="TnBXPGeX3V1vDeN0pRzf-3" value="&lt;h1&gt;タイピング&lt;/h1&gt;&lt;p&gt;寿司打ちのスコア/エイムテストのスコア&lt;/p&gt;" style="text;html=1;strokeColor=none;fillColor=none;spacing=5;spacingTop=-20;whiteSpace=wrap;overflow=hidden;rounded=0;" parent="TnBXPGeX3V1vDeN0pRzf-1" vertex="1">
          <mxGeometry x="5" y="10" width="190" height="120" as="geometry" />
        </mxCell>
        <mxCell id="20AWDQIB7XjDrrVvca6o-1" value="&lt;b&gt;読み取り不可能性&lt;/b&gt;" style="rounded=1;whiteSpace=wrap;html=1;" parent="1" vertex="1">
          <mxGeometry x="110" y="660" width="600" height="60" as="geometry" />
        </mxCell>
        <mxCell id="20AWDQIB7XjDrrVvca6o-2" value="&lt;b&gt;過小評価性&lt;/b&gt;" style="rounded=1;whiteSpace=wrap;html=1;" parent="1" vertex="1">
          <mxGeometry x="110" y="730" width="600" height="60" as="geometry" />
        </mxCell>
        <mxCell id="20AWDQIB7XjDrrVvca6o-6" value="" style="ellipse;html=1;shape=startState;fillColor=#000000;strokeColor=#ff0000;" parent="1" vertex="1">
          <mxGeometry x="800" y="435" width="30" height="30" as="geometry" />
        </mxCell>
        <mxCell id="20AWDQIB7XjDrrVvca6o-7" value="" style="edgeStyle=orthogonalEdgeStyle;html=1;verticalAlign=bottom;endArrow=open;endSize=8;strokeColor=#ff0000;rounded=0;entryX=1;entryY=0.5;entryDx=0;entryDy=0;" parent="1" source="20AWDQIB7XjDrrVvca6o-6" target="OWafoXtwRn1rCCrCmbJ9-17" edge="1">
          <mxGeometry x="1" y="-35" relative="1" as="geometry">
            <mxPoint x="720" y="510" as="targetPoint" />
            <mxPoint as="offset" />
          </mxGeometry>
        </mxCell>
        <mxCell id="h48SXymJz44AonQPjMPQ-2" value="&lt;b&gt;&lt;font style=&quot;font-size: 24px;&quot;&gt;可能な限り早く動く&lt;/font&gt;&lt;/b&gt;" style="rounded=0;whiteSpace=wrap;html=1;" parent="1" vertex="1">
          <mxGeometry x="40" y="20" width="760" height="60" as="geometry" />
        </mxCell>
        <mxCell id="h48SXymJz44AonQPjMPQ-3" value="" style="endArrow=classic;html=1;rounded=0;fontSize=24;exitX=0.5;exitY=0;exitDx=0;exitDy=0;entryX=0.5;entryY=1;entryDx=0;entryDy=0;" parent="1" source="OWafoXtwRn1rCCrCmbJ9-17" target="h48SXymJz44AonQPjMPQ-2" edge="1">
          <mxGeometry width="50" height="50" relative="1" as="geometry">
            <mxPoint x="390" y="230" as="sourcePoint" />
            <mxPoint x="440" y="180" as="targetPoint" />
          </mxGeometry>
        </mxCell>
        <mxCell id="qz6qHE4pXdJ5Qz2ob4EP-1" value="" style="group" parent="1" vertex="1" connectable="0">
          <mxGeometry x="560" y="120" width="200" height="140" as="geometry" />
        </mxCell>
        <mxCell id="qz6qHE4pXdJ5Qz2ob4EP-2" value="" style="rounded=1;whiteSpace=wrap;html=1;" parent="qz6qHE4pXdJ5Qz2ob4EP-1" vertex="1">
          <mxGeometry width="200" height="140" as="geometry" />
        </mxCell>
        <mxCell id="qz6qHE4pXdJ5Qz2ob4EP-3" value="&lt;h1&gt;PSY-Write&lt;/h1&gt;&lt;p&gt;具体的な交渉による。&lt;/p&gt;&lt;p&gt;コピーライティング&lt;/p&gt;" style="text;html=1;strokeColor=none;fillColor=none;spacing=5;spacingTop=-20;whiteSpace=wrap;overflow=hidden;rounded=0;" parent="qz6qHE4pXdJ5Qz2ob4EP-1" vertex="1">
          <mxGeometry x="5" y="10" width="190" height="120" as="geometry" />
        </mxCell>
      </root>
    </mxGraphModel>
  </diagram>
  <diagram name="ページ3のコピー" id="PWtH4Kki3CE_ixgM0-FU">
    <mxGraphModel dx="1194" dy="623" grid="1" gridSize="10" guides="1" tooltips="1" connect="1" arrows="1" fold="1" page="1" pageScale="1" pageWidth="850" pageHeight="1100" math="0" shadow="0">
      <root>
        <mxCell id="8ipQx6bS6f_A3CZj-Sfe-0" />
        <mxCell id="8ipQx6bS6f_A3CZj-Sfe-1" parent="8ipQx6bS6f_A3CZj-Sfe-0" />
        <mxCell id="8ipQx6bS6f_A3CZj-Sfe-2" value="" style="group" parent="8ipQx6bS6f_A3CZj-Sfe-1" vertex="1" connectable="0">
          <mxGeometry x="80" y="620" width="210" height="140" as="geometry" />
        </mxCell>
        <mxCell id="8ipQx6bS6f_A3CZj-Sfe-3" value="" style="rounded=1;whiteSpace=wrap;html=1;" parent="8ipQx6bS6f_A3CZj-Sfe-2" vertex="1">
          <mxGeometry width="200" height="140" as="geometry" />
        </mxCell>
        <mxCell id="8ipQx6bS6f_A3CZj-Sfe-4" value="&lt;h1&gt;メディエーター&lt;/h1&gt;&lt;p&gt;豊富な運動量でシャビがスペースを作り、作ったスペースに移動、あ&lt;/p&gt;" style="text;html=1;strokeColor=none;fillColor=none;spacing=5;spacingTop=-20;whiteSpace=wrap;overflow=hidden;rounded=0;" parent="8ipQx6bS6f_A3CZj-Sfe-2" vertex="1">
          <mxGeometry x="5" y="10" width="190" height="120" as="geometry" />
        </mxCell>
        <mxCell id="8ipQx6bS6f_A3CZj-Sfe-5" value="" style="group" parent="8ipQx6bS6f_A3CZj-Sfe-1" vertex="1" connectable="0">
          <mxGeometry x="440" y="320" width="200" height="140" as="geometry" />
        </mxCell>
        <mxCell id="8ipQx6bS6f_A3CZj-Sfe-6" value="" style="rounded=1;whiteSpace=wrap;html=1;" parent="8ipQx6bS6f_A3CZj-Sfe-5" vertex="1">
          <mxGeometry width="200" height="140" as="geometry" />
        </mxCell>
        <mxCell id="8ipQx6bS6f_A3CZj-Sfe-7" value="&lt;h1&gt;PSY-Read&lt;/h1&gt;&lt;p&gt;&lt;span style=&quot;background-color: initial;&quot;&gt;トランザクション運び。&lt;/span&gt;&lt;br&gt;&lt;/p&gt;&lt;p&gt;予測すること。 by psy.&lt;/p&gt;" style="text;html=1;strokeColor=none;fillColor=none;spacing=5;spacingTop=-20;whiteSpace=wrap;overflow=hidden;rounded=0;" parent="8ipQx6bS6f_A3CZj-Sfe-5" vertex="1">
          <mxGeometry x="5" y="10" width="190" height="120" as="geometry" />
        </mxCell>
        <mxCell id="8ipQx6bS6f_A3CZj-Sfe-8" value="中盤/イベント駆動アーキテクチャ" style="swimlane;whiteSpace=wrap;html=1;" parent="8ipQx6bS6f_A3CZj-Sfe-1" vertex="1">
          <mxGeometry x="40" y="280" width="720" height="520" as="geometry" />
        </mxCell>
        <mxCell id="8ipQx6bS6f_A3CZj-Sfe-9" value="" style="group" parent="8ipQx6bS6f_A3CZj-Sfe-8" vertex="1" connectable="0">
          <mxGeometry x="20" y="40" width="380" height="300" as="geometry" />
        </mxCell>
        <mxCell id="8ipQx6bS6f_A3CZj-Sfe-10" value="" style="rounded=1;whiteSpace=wrap;html=1;" parent="8ipQx6bS6f_A3CZj-Sfe-9" vertex="1">
          <mxGeometry x="-9" width="200" height="140" as="geometry" />
        </mxCell>
        <mxCell id="8ipQx6bS6f_A3CZj-Sfe-11" value="&lt;h1&gt;ジョブ&lt;/h1&gt;&lt;p&gt;トランザクションキープ&lt;/p&gt;&lt;p&gt;安定した情報源として機能する。リスクを負ってはいけない。&lt;/p&gt;" style="text;html=1;strokeColor=none;fillColor=none;spacing=5;spacingTop=-20;whiteSpace=wrap;overflow=hidden;rounded=0;" parent="8ipQx6bS6f_A3CZj-Sfe-9" vertex="1">
          <mxGeometry x="1" y="10" width="190" height="120" as="geometry" />
        </mxCell>
        <mxCell id="8ipQx6bS6f_A3CZj-Sfe-12" value="" style="group" parent="8ipQx6bS6f_A3CZj-Sfe-1" vertex="1" connectable="0">
          <mxGeometry x="80" y="120" width="200" height="140" as="geometry" />
        </mxCell>
        <mxCell id="8ipQx6bS6f_A3CZj-Sfe-13" value="" style="rounded=1;whiteSpace=wrap;html=1;" parent="8ipQx6bS6f_A3CZj-Sfe-12" vertex="1">
          <mxGeometry width="200" height="140" as="geometry" />
        </mxCell>
        <mxCell id="8ipQx6bS6f_A3CZj-Sfe-14" value="&lt;h1&gt;タイピング&lt;/h1&gt;&lt;p&gt;寿司打ちのスコア/エイムテストのスコア&lt;/p&gt;" style="text;html=1;strokeColor=none;fillColor=none;spacing=5;spacingTop=-20;whiteSpace=wrap;overflow=hidden;rounded=0;" parent="8ipQx6bS6f_A3CZj-Sfe-12" vertex="1">
          <mxGeometry x="5" y="10" width="190" height="120" as="geometry" />
        </mxCell>
        <mxCell id="8ipQx6bS6f_A3CZj-Sfe-15" value="&lt;b&gt;読み取り不可能性&lt;/b&gt;" style="rounded=1;whiteSpace=wrap;html=1;" parent="8ipQx6bS6f_A3CZj-Sfe-1" vertex="1">
          <mxGeometry x="110" y="850" width="600" height="60" as="geometry" />
        </mxCell>
        <mxCell id="8ipQx6bS6f_A3CZj-Sfe-16" value="&lt;b&gt;過小評価性&lt;/b&gt;" style="rounded=1;whiteSpace=wrap;html=1;" parent="8ipQx6bS6f_A3CZj-Sfe-1" vertex="1">
          <mxGeometry x="110" y="920" width="600" height="60" as="geometry" />
        </mxCell>
        <mxCell id="8ipQx6bS6f_A3CZj-Sfe-17" value="" style="ellipse;html=1;shape=startState;fillColor=#000000;strokeColor=#ff0000;" parent="8ipQx6bS6f_A3CZj-Sfe-1" vertex="1">
          <mxGeometry x="800" y="435" width="30" height="30" as="geometry" />
        </mxCell>
        <mxCell id="8ipQx6bS6f_A3CZj-Sfe-18" value="" style="edgeStyle=orthogonalEdgeStyle;html=1;verticalAlign=bottom;endArrow=open;endSize=8;strokeColor=#ff0000;rounded=0;entryX=1;entryY=0.5;entryDx=0;entryDy=0;" parent="8ipQx6bS6f_A3CZj-Sfe-1" source="8ipQx6bS6f_A3CZj-Sfe-17" target="8ipQx6bS6f_A3CZj-Sfe-8" edge="1">
          <mxGeometry x="1" y="-35" relative="1" as="geometry">
            <mxPoint x="720" y="510" as="targetPoint" />
            <mxPoint as="offset" />
          </mxGeometry>
        </mxCell>
        <mxCell id="8ipQx6bS6f_A3CZj-Sfe-19" value="&lt;b&gt;&lt;font style=&quot;font-size: 24px;&quot;&gt;可能な限り早く動く&lt;/font&gt;&lt;/b&gt;" style="rounded=0;whiteSpace=wrap;html=1;" parent="8ipQx6bS6f_A3CZj-Sfe-1" vertex="1">
          <mxGeometry x="40" y="20" width="760" height="60" as="geometry" />
        </mxCell>
        <mxCell id="8ipQx6bS6f_A3CZj-Sfe-20" value="" style="endArrow=classic;html=1;rounded=0;fontSize=24;exitX=0.5;exitY=0;exitDx=0;exitDy=0;entryX=0.5;entryY=1;entryDx=0;entryDy=0;" parent="8ipQx6bS6f_A3CZj-Sfe-1" source="8ipQx6bS6f_A3CZj-Sfe-8" target="8ipQx6bS6f_A3CZj-Sfe-19" edge="1">
          <mxGeometry width="50" height="50" relative="1" as="geometry">
            <mxPoint x="390" y="230" as="sourcePoint" />
            <mxPoint x="440" y="180" as="targetPoint" />
          </mxGeometry>
        </mxCell>
        <mxCell id="8ipQx6bS6f_A3CZj-Sfe-21" value="" style="group" parent="8ipQx6bS6f_A3CZj-Sfe-1" vertex="1" connectable="0">
          <mxGeometry x="560" y="120" width="200" height="140" as="geometry" />
        </mxCell>
        <mxCell id="8ipQx6bS6f_A3CZj-Sfe-22" value="" style="rounded=1;whiteSpace=wrap;html=1;" parent="8ipQx6bS6f_A3CZj-Sfe-21" vertex="1">
          <mxGeometry width="200" height="140" as="geometry" />
        </mxCell>
        <mxCell id="8ipQx6bS6f_A3CZj-Sfe-23" value="&lt;h1&gt;PSY-Write&lt;/h1&gt;&lt;p&gt;具体的な交渉による。&lt;/p&gt;&lt;p&gt;コピーライティング&lt;/p&gt;" style="text;html=1;strokeColor=none;fillColor=none;spacing=5;spacingTop=-20;whiteSpace=wrap;overflow=hidden;rounded=0;" parent="8ipQx6bS6f_A3CZj-Sfe-21" vertex="1">
          <mxGeometry x="5" y="10" width="190" height="120" as="geometry" />
        </mxCell>
      </root>
    </mxGraphModel>
  </diagram>
  <diagram id="Xxg2kINWPw-Xd-zzLjKB" name="PSY">
    <mxGraphModel dx="1194" dy="623" grid="1" gridSize="10" guides="1" tooltips="1" connect="1" arrows="1" fold="1" page="1" pageScale="1" pageWidth="850" pageHeight="1100" math="0" shadow="0">
      <root>
        <mxCell id="0" />
        <mxCell id="1" parent="0" />
        <mxCell id="6oQBboPy4ir8sxx8oxXU-1" value="Event Driven Architecture / Mediator Type" style="rounded=1;whiteSpace=wrap;html=1;" parent="1" vertex="1">
          <mxGeometry x="40" y="40" width="760" height="40" as="geometry" />
        </mxCell>
        <mxCell id="s55uWYcOpkRgiLQDPcXj-1" value="ルール" style="swimlane;fontStyle=0;childLayout=stackLayout;horizontal=1;startSize=30;horizontalStack=0;resizeParent=1;resizeParentMax=0;resizeLast=0;collapsible=1;marginBottom=0;whiteSpace=wrap;html=1;" parent="1" vertex="1">
          <mxGeometry x="690" y="100" width="140" height="120" as="geometry" />
        </mxCell>
        <mxCell id="s55uWYcOpkRgiLQDPcXj-2" value="メッセージを出すこと" style="text;strokeColor=none;fillColor=none;align=left;verticalAlign=middle;spacingLeft=4;spacingRight=4;overflow=hidden;points=[[0,0.5],[1,0.5]];portConstraint=eastwest;rotatable=0;whiteSpace=wrap;html=1;" parent="s55uWYcOpkRgiLQDPcXj-1" vertex="1">
          <mxGeometry y="30" width="140" height="30" as="geometry" />
        </mxCell>
        <mxCell id="s55uWYcOpkRgiLQDPcXj-3" value="各要素は反応すること" style="text;strokeColor=none;fillColor=none;align=left;verticalAlign=middle;spacingLeft=4;spacingRight=4;overflow=hidden;points=[[0,0.5],[1,0.5]];portConstraint=eastwest;rotatable=0;whiteSpace=wrap;html=1;" parent="s55uWYcOpkRgiLQDPcXj-1" vertex="1">
          <mxGeometry y="60" width="140" height="30" as="geometry" />
        </mxCell>
        <mxCell id="s55uWYcOpkRgiLQDPcXj-4" value="Mediatorは後から" style="text;strokeColor=none;fillColor=none;align=left;verticalAlign=middle;spacingLeft=4;spacingRight=4;overflow=hidden;points=[[0,0.5],[1,0.5]];portConstraint=eastwest;rotatable=0;whiteSpace=wrap;html=1;" parent="s55uWYcOpkRgiLQDPcXj-1" vertex="1">
          <mxGeometry y="90" width="140" height="30" as="geometry" />
        </mxCell>
      </root>
    </mxGraphModel>
  </diagram>
  <diagram id="_N1ysPWspxZEBPwWvocT" name="Page-8">
    <mxGraphModel dx="1674" dy="834" grid="1" gridSize="10" guides="1" tooltips="1" connect="1" arrows="1" fold="1" page="1" pageScale="1" pageWidth="850" pageHeight="1100" math="0" shadow="0">
      <root>
        <mxCell id="0" />
        <mxCell id="1" parent="0" />
        <mxCell id="2cmOuW_sZFmFdFxKvgbc-5" value="Psychology" style="swimlane;whiteSpace=wrap;html=1;" vertex="1" parent="1">
          <mxGeometry x="55" y="251" width="720" height="350" as="geometry" />
        </mxCell>
        <mxCell id="2cmOuW_sZFmFdFxKvgbc-51" style="edgeStyle=orthogonalEdgeStyle;rounded=0;orthogonalLoop=1;jettySize=auto;html=1;exitX=1;exitY=0.5;exitDx=0;exitDy=0;entryX=0;entryY=0.5;entryDx=0;entryDy=0;" edge="1" parent="2cmOuW_sZFmFdFxKvgbc-5" source="2cmOuW_sZFmFdFxKvgbc-19" target="2cmOuW_sZFmFdFxKvgbc-14">
          <mxGeometry relative="1" as="geometry" />
        </mxCell>
        <mxCell id="2cmOuW_sZFmFdFxKvgbc-19" value="Read State" style="swimlane;whiteSpace=wrap;html=1;" vertex="1" parent="2cmOuW_sZFmFdFxKvgbc-5">
          <mxGeometry x="20" y="40" width="240" height="280" as="geometry" />
        </mxCell>
        <mxCell id="2cmOuW_sZFmFdFxKvgbc-24" value="精神年齢" style="rounded=1;whiteSpace=wrap;html=1;" vertex="1" parent="2cmOuW_sZFmFdFxKvgbc-19">
          <mxGeometry x="10" y="40" width="100" height="60" as="geometry" />
        </mxCell>
        <mxCell id="2cmOuW_sZFmFdFxKvgbc-43" value="緊張状態" style="rounded=1;whiteSpace=wrap;html=1;" vertex="1" parent="2cmOuW_sZFmFdFxKvgbc-19">
          <mxGeometry x="130" y="40" width="100" height="60" as="geometry" />
        </mxCell>
        <mxCell id="2cmOuW_sZFmFdFxKvgbc-44" value="恐怖による&lt;br&gt;本能領域" style="rounded=1;whiteSpace=wrap;html=1;" vertex="1" parent="2cmOuW_sZFmFdFxKvgbc-19">
          <mxGeometry x="10" y="110" width="100" height="60" as="geometry" />
        </mxCell>
        <mxCell id="2cmOuW_sZFmFdFxKvgbc-18" value="Write" style="swimlane;whiteSpace=wrap;html=1;" vertex="1" parent="2cmOuW_sZFmFdFxKvgbc-5">
          <mxGeometry x="430" y="40" width="270" height="280" as="geometry" />
        </mxCell>
        <mxCell id="2cmOuW_sZFmFdFxKvgbc-20" value="ミラーリング" style="rounded=1;whiteSpace=wrap;html=1;" vertex="1" parent="2cmOuW_sZFmFdFxKvgbc-18">
          <mxGeometry x="10" y="40" width="100" height="60" as="geometry" />
        </mxCell>
        <mxCell id="2cmOuW_sZFmFdFxKvgbc-21" value="ラベリング" style="rounded=1;whiteSpace=wrap;html=1;" vertex="1" parent="2cmOuW_sZFmFdFxKvgbc-18">
          <mxGeometry x="10" y="110" width="100" height="60" as="geometry" />
        </mxCell>
        <mxCell id="2cmOuW_sZFmFdFxKvgbc-23" style="edgeStyle=orthogonalEdgeStyle;rounded=0;orthogonalLoop=1;jettySize=auto;html=1;exitX=0.5;exitY=1;exitDx=0;exitDy=0;" edge="1" parent="2cmOuW_sZFmFdFxKvgbc-18" source="2cmOuW_sZFmFdFxKvgbc-20" target="2cmOuW_sZFmFdFxKvgbc-20">
          <mxGeometry relative="1" as="geometry" />
        </mxCell>
        <mxCell id="2cmOuW_sZFmFdFxKvgbc-25" value="コールド&lt;br&gt;リーディング" style="rounded=1;whiteSpace=wrap;html=1;" vertex="1" parent="2cmOuW_sZFmFdFxKvgbc-18">
          <mxGeometry x="160" y="40" width="100" height="60" as="geometry" />
        </mxCell>
        <mxCell id="2cmOuW_sZFmFdFxKvgbc-52" style="edgeStyle=orthogonalEdgeStyle;rounded=0;orthogonalLoop=1;jettySize=auto;html=1;exitX=1;exitY=0.5;exitDx=0;exitDy=0;entryX=0;entryY=0.5;entryDx=0;entryDy=0;" edge="1" parent="2cmOuW_sZFmFdFxKvgbc-5" source="2cmOuW_sZFmFdFxKvgbc-14" target="2cmOuW_sZFmFdFxKvgbc-18">
          <mxGeometry relative="1" as="geometry" />
        </mxCell>
        <mxCell id="2cmOuW_sZFmFdFxKvgbc-14" value="" style="shape=image;verticalLabelPosition=bottom;labelBackgroundColor=default;verticalAlign=top;aspect=fixed;imageAspect=0;image=https://tistatech.com/wp-content/uploads/2016/03/agile-icon-blue.png;" vertex="1" parent="2cmOuW_sZFmFdFxKvgbc-5">
          <mxGeometry x="308" y="247.61" width="77" height="72.39" as="geometry" />
        </mxCell>
        <mxCell id="2cmOuW_sZFmFdFxKvgbc-55" value="Engin" style="text;html=1;strokeColor=none;fillColor=none;align=center;verticalAlign=middle;whiteSpace=wrap;rounded=0;" vertex="1" parent="2cmOuW_sZFmFdFxKvgbc-5">
          <mxGeometry x="316.5" y="179" width="60" height="30" as="geometry" />
        </mxCell>
        <mxCell id="2cmOuW_sZFmFdFxKvgbc-10" style="edgeStyle=orthogonalEdgeStyle;rounded=0;orthogonalLoop=1;jettySize=auto;html=1;exitX=0.5;exitY=0;exitDx=0;exitDy=0;entryX=0.5;entryY=1;entryDx=0;entryDy=0;" edge="1" parent="1" source="2cmOuW_sZFmFdFxKvgbc-8" target="2cmOuW_sZFmFdFxKvgbc-14">
          <mxGeometry relative="1" as="geometry">
            <mxPoint x="375" y="801" as="targetPoint" />
          </mxGeometry>
        </mxCell>
        <mxCell id="2cmOuW_sZFmFdFxKvgbc-8" value="Engineer" style="swimlane;whiteSpace=wrap;html=1;" vertex="1" parent="1">
          <mxGeometry x="415" y="660" width="160" height="200" as="geometry" />
        </mxCell>
        <mxCell id="2cmOuW_sZFmFdFxKvgbc-13" style="edgeStyle=orthogonalEdgeStyle;rounded=0;orthogonalLoop=1;jettySize=auto;html=1;exitX=0.5;exitY=0;exitDx=0;exitDy=0;entryX=0.5;entryY=1;entryDx=0;entryDy=0;" edge="1" parent="1" source="2cmOuW_sZFmFdFxKvgbc-12" target="2cmOuW_sZFmFdFxKvgbc-14">
          <mxGeometry relative="1" as="geometry">
            <mxPoint x="375" y="801" as="targetPoint" />
          </mxGeometry>
        </mxCell>
        <mxCell id="2cmOuW_sZFmFdFxKvgbc-12" value="Brand" style="rounded=1;whiteSpace=wrap;html=1;" vertex="1" parent="1">
          <mxGeometry x="240" y="660" width="120" height="60" as="geometry" />
        </mxCell>
        <mxCell id="2cmOuW_sZFmFdFxKvgbc-16" value="&lt;h1&gt;Psychology&lt;/h1&gt;&lt;p&gt;ケース別で大量のカードを用意できている。&lt;/p&gt;" style="text;html=1;strokeColor=none;fillColor=none;spacing=5;spacingTop=-20;whiteSpace=wrap;overflow=hidden;rounded=0;" vertex="1" parent="1">
          <mxGeometry x="645" y="140" width="190" height="90" as="geometry" />
        </mxCell>
        <mxCell id="2cmOuW_sZFmFdFxKvgbc-59" style="edgeStyle=orthogonalEdgeStyle;rounded=0;orthogonalLoop=1;jettySize=auto;html=1;exitX=0.5;exitY=1;exitDx=0;exitDy=0;entryX=0.5;entryY=0;entryDx=0;entryDy=0;" edge="1" parent="1" source="2cmOuW_sZFmFdFxKvgbc-58" target="2cmOuW_sZFmFdFxKvgbc-19">
          <mxGeometry relative="1" as="geometry" />
        </mxCell>
        <mxCell id="2cmOuW_sZFmFdFxKvgbc-58" value="ケース別対応" style="swimlane;whiteSpace=wrap;html=1;" vertex="1" parent="1">
          <mxGeometry x="15" y="30" width="360" height="160" as="geometry" />
        </mxCell>
        <mxCell id="2cmOuW_sZFmFdFxKvgbc-34" value="" style="group" vertex="1" connectable="0" parent="2cmOuW_sZFmFdFxKvgbc-58">
          <mxGeometry x="10" y="40" width="120" height="110" as="geometry" />
        </mxCell>
        <mxCell id="2cmOuW_sZFmFdFxKvgbc-32" value="CASE RELATION" style="group" vertex="1" connectable="0" parent="2cmOuW_sZFmFdFxKvgbc-34">
          <mxGeometry width="120" height="80" as="geometry" />
        </mxCell>
        <mxCell id="2cmOuW_sZFmFdFxKvgbc-26" value="" style="shape=cube;whiteSpace=wrap;html=1;boundedLbl=1;backgroundOutline=1;darkOpacity=0.05;darkOpacity2=0.1;" vertex="1" parent="2cmOuW_sZFmFdFxKvgbc-32">
          <mxGeometry width="120" height="80" as="geometry" />
        </mxCell>
        <mxCell id="2cmOuW_sZFmFdFxKvgbc-27" value="" style="shape=umlActor;verticalLabelPosition=bottom;verticalAlign=top;html=1;outlineConnect=0;" vertex="1" parent="2cmOuW_sZFmFdFxKvgbc-32">
          <mxGeometry x="30" y="30" width="20" height="40" as="geometry" />
        </mxCell>
        <mxCell id="2cmOuW_sZFmFdFxKvgbc-28" value="" style="shape=umlActor;verticalLabelPosition=bottom;verticalAlign=top;html=1;outlineConnect=0;" vertex="1" parent="2cmOuW_sZFmFdFxKvgbc-32">
          <mxGeometry x="60" y="30" width="20" height="40" as="geometry" />
        </mxCell>
        <mxCell id="2cmOuW_sZFmFdFxKvgbc-31" value="" style="shape=umlActor;verticalLabelPosition=bottom;verticalAlign=top;html=1;outlineConnect=0;" vertex="1" parent="2cmOuW_sZFmFdFxKvgbc-32">
          <mxGeometry x="90" y="30" width="20" height="40" as="geometry" />
        </mxCell>
        <mxCell id="2cmOuW_sZFmFdFxKvgbc-33" value="CASEA &lt;br&gt;信頼関係構築" style="text;strokeColor=none;fillColor=none;align=left;verticalAlign=middle;spacingLeft=4;spacingRight=4;overflow=hidden;points=[[0,0.5],[1,0.5]];portConstraint=eastwest;rotatable=0;whiteSpace=wrap;html=1;" vertex="1" parent="2cmOuW_sZFmFdFxKvgbc-34">
          <mxGeometry x="20" y="80" width="100" height="30" as="geometry" />
        </mxCell>
        <mxCell id="2cmOuW_sZFmFdFxKvgbc-60" style="edgeStyle=orthogonalEdgeStyle;rounded=0;orthogonalLoop=1;jettySize=auto;html=1;exitX=0.5;exitY=0;exitDx=0;exitDy=0;entryX=0.5;entryY=1;entryDx=0;entryDy=0;" edge="1" parent="1" source="2cmOuW_sZFmFdFxKvgbc-18" target="2cmOuW_sZFmFdFxKvgbc-58">
          <mxGeometry relative="1" as="geometry" />
        </mxCell>
        <mxCell id="2cmOuW_sZFmFdFxKvgbc-61" value="" style="group" vertex="1" connectable="0" parent="1">
          <mxGeometry x="160" y="70" width="120" height="110" as="geometry" />
        </mxCell>
        <mxCell id="2cmOuW_sZFmFdFxKvgbc-62" value="CASE RELATION" style="group" vertex="1" connectable="0" parent="2cmOuW_sZFmFdFxKvgbc-61">
          <mxGeometry width="120" height="80" as="geometry" />
        </mxCell>
        <mxCell id="2cmOuW_sZFmFdFxKvgbc-63" value="" style="shape=cube;whiteSpace=wrap;html=1;boundedLbl=1;backgroundOutline=1;darkOpacity=0.05;darkOpacity2=0.1;" vertex="1" parent="2cmOuW_sZFmFdFxKvgbc-62">
          <mxGeometry width="120" height="80" as="geometry" />
        </mxCell>
        <mxCell id="2cmOuW_sZFmFdFxKvgbc-64" value="" style="shape=umlActor;verticalLabelPosition=bottom;verticalAlign=top;html=1;outlineConnect=0;" vertex="1" parent="2cmOuW_sZFmFdFxKvgbc-62">
          <mxGeometry x="30" y="30" width="20" height="40" as="geometry" />
        </mxCell>
        <mxCell id="2cmOuW_sZFmFdFxKvgbc-65" value="" style="shape=umlActor;verticalLabelPosition=bottom;verticalAlign=top;html=1;outlineConnect=0;" vertex="1" parent="2cmOuW_sZFmFdFxKvgbc-62">
          <mxGeometry x="60" y="30" width="20" height="40" as="geometry" />
        </mxCell>
        <mxCell id="2cmOuW_sZFmFdFxKvgbc-66" value="" style="shape=umlActor;verticalLabelPosition=bottom;verticalAlign=top;html=1;outlineConnect=0;" vertex="1" parent="2cmOuW_sZFmFdFxKvgbc-62">
          <mxGeometry x="90" y="30" width="20" height="40" as="geometry" />
        </mxCell>
        <mxCell id="2cmOuW_sZFmFdFxKvgbc-67" value="CASEB&lt;br&gt;プレゼン" style="text;strokeColor=none;fillColor=none;align=left;verticalAlign=middle;spacingLeft=4;spacingRight=4;overflow=hidden;points=[[0,0.5],[1,0.5]];portConstraint=eastwest;rotatable=0;whiteSpace=wrap;html=1;" vertex="1" parent="2cmOuW_sZFmFdFxKvgbc-61">
          <mxGeometry x="20" y="80" width="100" height="30" as="geometry" />
        </mxCell>
        <mxCell id="2cmOuW_sZFmFdFxKvgbc-68" value="" style="shape=image;verticalLabelPosition=bottom;labelBackgroundColor=default;verticalAlign=top;aspect=fixed;imageAspect=0;image=https://tistatech.com/wp-content/uploads/2016/03/agile-icon-blue.png;" vertex="1" parent="1">
          <mxGeometry x="660" y="640" width="77" height="72.39" as="geometry" />
        </mxCell>
        <mxCell id="2cmOuW_sZFmFdFxKvgbc-69" value="Engine Candidate" style="swimlane;fontStyle=0;childLayout=stackLayout;horizontal=1;startSize=30;horizontalStack=0;resizeParent=1;resizeParentMax=0;resizeLast=0;collapsible=1;marginBottom=0;whiteSpace=wrap;html=1;" vertex="1" parent="1">
          <mxGeometry x="635" y="720" width="145" height="150" as="geometry" />
        </mxCell>
        <mxCell id="2cmOuW_sZFmFdFxKvgbc-70" value="機械学習プロセス?&lt;br&gt;" style="text;strokeColor=none;fillColor=none;align=left;verticalAlign=middle;spacingLeft=4;spacingRight=4;overflow=hidden;points=[[0,0.5],[1,0.5]];portConstraint=eastwest;rotatable=0;whiteSpace=wrap;html=1;" vertex="1" parent="2cmOuW_sZFmFdFxKvgbc-69">
          <mxGeometry y="30" width="145" height="30" as="geometry" />
        </mxCell>
        <mxCell id="2cmOuW_sZFmFdFxKvgbc-71" value="アジャイル→Jetbrain" style="text;strokeColor=none;fillColor=none;align=left;verticalAlign=middle;spacingLeft=4;spacingRight=4;overflow=hidden;points=[[0,0.5],[1,0.5]];portConstraint=eastwest;rotatable=0;whiteSpace=wrap;html=1;" vertex="1" parent="2cmOuW_sZFmFdFxKvgbc-69">
          <mxGeometry y="60" width="145" height="30" as="geometry" />
        </mxCell>
        <mxCell id="2cmOuW_sZFmFdFxKvgbc-72" value="ブログ?" style="text;strokeColor=none;fillColor=none;align=left;verticalAlign=middle;spacingLeft=4;spacingRight=4;overflow=hidden;points=[[0,0.5],[1,0.5]];portConstraint=eastwest;rotatable=0;whiteSpace=wrap;html=1;" vertex="1" parent="2cmOuW_sZFmFdFxKvgbc-69">
          <mxGeometry y="90" width="145" height="30" as="geometry" />
        </mxCell>
        <mxCell id="2cmOuW_sZFmFdFxKvgbc-73" value="Googleのソフトウェア&lt;br&gt;エンジニアリング" style="text;strokeColor=none;fillColor=none;align=left;verticalAlign=middle;spacingLeft=4;spacingRight=4;overflow=hidden;points=[[0,0.5],[1,0.5]];portConstraint=eastwest;rotatable=0;whiteSpace=wrap;html=1;" vertex="1" parent="2cmOuW_sZFmFdFxKvgbc-69">
          <mxGeometry y="120" width="145" height="30" as="geometry" />
        </mxCell>
      </root>
    </mxGraphModel>
  </diagram>
</mxfile>
